# xmcd
# Copyright (C) 1995-1998 Ti Kan
#
# Track frame offsets:
#       150
#       2565
#       26570
#       46131
#       58452
#       88919
#       109331
#       137971
#       161914
#       183405
#       199141
#       220401
#       236465
#
# Disc length: 3428 seconds
#
# Revision: 0
# Processed by: cddbd v1.5.2PL0 Copyright (c) Steve Scherf et al.
# Submitted via: CD-Import v1.0
#
DISCID=bf0d620d
DTITLE=Ganglians - Monster Head Room
DYEAR=2010
DGENRE=
TTITLE0=Something Should Be Said
TTITLE1=Voodoo
TTITLE2=Lost Words
TTITLE3=Candy Girl
TTITLE4=Valient Brave
TTITLE5=The Void
TTITLE6=To June
TTITLE7=100 Years
TTITLE8=Cryin' Smoke
TTITLE9=Modern African Queen
TTITLE10=Try To Understand
TTITLE11=Blood On The Sand
TTITLE12=Make It Up
EXTD=
EXTT0=
EXTT1=
EXTT2=
EXTT3=
EXTT4=
EXTT5=
EXTT6=
EXTT7=
EXTT8=
EXTT9=
EXTT10=
EXTT11=
EXTT12=
PLAYORDER=
